# xmcd CD database file
#
# Track frame offsets:
#	188
#	10698
#	27088
#	40680
#	47758
#	62208
#	81113
#	89958
#	103813
#	117508
#	126510
#	142818
#	152948
#	162198
#	176973
#	188673
#
# Disc length: 2946 seconds
#
# Revision: 0
# Processed by: cddbd v1.5.1PL0 Copyright (c) Steve Scherf et al.
# Submitted via: CDex 1.51
#
DISCID=dc0b8010
DTITLE=Glenn Miller and the Army Air Force Band - Rare Broadcast - Performances from 1943 - 1944
DYEAR=1900
DGENRE=Jazz
TTITLE0=Sun Valley Jump - Jerry Gray
TTITLE1=I Got Rhythm - Ira and Geroge Gershwin
TTITLE2=Rhapsody in Blue - G. Gershwin
TTITLE3=My Blue Heaven - G. Whitting and W. Donaldson
TTITLE4=Long Ago And Far Away - Ira Gershwin Jerome Kern
TTITLE5=Oh What A Beautiful Morning - R.Rodgers O. Hammerstein
TTITLE6=A Tisket A Tasket - Ella Fitzgerald
TTITLE7=What Do You Do In The Infantry - F. Loesser
TTITLE8=Soitude - Ellington+De Lange+Mills
TTITLE9=I'll Be Around - A. Wilder
TTITLE10=Here We Go Again - Jerry Gray
TTITLE11=Jeep Jockey Jump - Jerry Gray
TTITLE12=Over There - George M. Cohan
TTITLE13=Peggy, The Pin Up Girl - Evans
TTITLE14=There'll Be A Hot Time In The Town Of Berlin - Bushkin and de Vries
TTITLE15=Medley /In The Gloaming - The First Time - Stompin At The Savoy - Deep Purple
EXTD=
EXTT0=
EXTT1=
EXTT2=
EXTT3=
EXTT4=
EXTT5=
EXTT6=
EXTT7=
EXTT8=
EXTT9=
EXTT10=
EXTT11=
EXTT12=
EXTT13=
EXTT14=
EXTT15=
PLAYORDER=
